<svg width="20" height="20" viewBox="0 0 20 20" fill="none" xmlns="http://www.w3.org/2000/svg">
<g clip-path="url(#clip0_34_3658)">
<path d="M17.9999 0.799999C17.5577 0.799999 17.1999 1.15781 17.1999 1.6C17.1999 1.71719 17.2296 1.825 17.2749 1.925L14.0749 6.4C14.0499 6.39844 14.0249 6.4 13.9999 6.4C13.8405 6.4 13.6874 6.44375 13.5624 6.525L10.7999 5.15C10.7733 4.73125 10.4249 4.4 9.9999 4.4C9.55771 4.4 9.1999 4.75781 9.1999 5.2C9.1999 5.24219 9.20615 5.28437 9.2124 5.325L6.2874 7.65C6.19834 7.61562 6.10146 7.6 5.9999 7.6C5.5999 7.6 5.27178 7.89219 5.2124 8.275L2.4874 9.375C2.35146 9.26875 2.18428 9.2 1.9999 9.2C1.55771 9.2 1.1999 9.55781 1.1999 10C1.1999 10.4422 1.55771 10.8 1.9999 10.8C2.40303 10.8 2.73271 10.5016 2.7874 10.1125L5.5124 9.025C5.64834 9.13125 5.81553 9.2 5.9999 9.2C6.44209 9.2 6.7999 8.84219 6.7999 8.4C6.7999 8.35781 6.79365 8.31562 6.7874 8.275L9.7124 5.95C9.80147 5.98437 9.89834 6 9.9999 6C10.1593 6 10.3124 5.95625 10.4374 5.875L13.1999 7.25C13.2265 7.66875 13.5749 8 13.9999 8C14.4421 8 14.7999 7.64219 14.7999 7.2C14.7999 7.08281 14.7702 6.975 14.7249 6.875L17.9249 2.4C17.9499 2.40156 17.9749 2.4 17.9999 2.4C18.4421 2.4 18.7999 2.04219 18.7999 1.6C18.7999 1.15781 18.4421 0.799999 17.9999 0.799999ZM16.3999 6V20H19.5999V6H16.3999ZM8.3999 9.6V20H11.5999V9.6H8.3999ZM12.3999 11.6V20H15.5999V11.6H12.3999ZM4.3999 12.8V20H7.5999V12.8H4.3999ZM0.399902 14.4V20H3.5999V14.4H0.399902Z" fill="black"/>
</g>
<defs>
<clipPath id="clip0_34_3658">
<rect width="20" height="20" fill="white"/>
</clipPath>
</defs>
</svg>
