<svg width="20" height="20" viewBox="0 0 20 20" fill="none" xmlns="http://www.w3.org/2000/svg">
<g clip-path="url(#clip0_34_3670)">
<path d="M9.9998 0.800003C4.927 0.800003 0.799805 4.9268 0.799805 10C0.799805 15.0732 4.927 19.2 9.9998 19.2C15.0726 19.2 19.1998 15.0732 19.1998 10C19.1998 4.9268 15.0726 0.800003 9.9998 0.800003ZM15.0938 5.0716L11.0574 9.444C11.1454 9.6108 11.1998 9.7984 11.1998 10C11.1998 10.304 11.083 10.5788 10.8966 10.7904L12.3494 13.406C12.457 13.5988 12.387 13.8424 12.1942 13.9496C12.1326 13.984 12.0658 14 12.0002 14C11.8594 14 11.7234 13.9256 11.6502 13.794L10.1978 11.18C10.133 11.1908 10.0678 11.2 9.9998 11.2C9.337 11.2 8.7998 10.6628 8.7998 10C8.7998 9.3372 9.337 8.8 9.9998 8.8C10.1678 8.8 10.3278 8.8352 10.473 8.8976L14.5058 4.5284C14.6558 4.3668 14.9086 4.356 15.071 4.506C15.2334 4.656 15.2434 4.9088 15.0938 5.0716Z" fill="black"/>
</g>
<defs>
<clipPath id="clip0_34_3670">
<rect width="25" height="20" fill="white"/>
</clipPath>
</defs>
</svg>
