<svg width="20" height="20" viewBox="0 0 20 20" fill="none" xmlns="http://www.w3.org/2000/svg">
<g clip-path="url(#clip0_34_3674)">
<path d="M9.9998 0C6.91855 0 6.35918 0.86875 6.2623 1.1375C6.25137 1.16719 6.24043 1.20625 6.2373 1.2375L5.7748 5.3125C6.3873 5.04531 7.22637 5.07969 8.3123 5.1375C8.81699 5.16406 9.38887 5.2 9.9998 5.2C10.6092 5.2 11.1826 5.16406 11.6873 5.1375C12.7717 5.07969 13.6123 5.04531 14.2248 5.3125L13.7623 1.2375C13.7592 1.20625 13.7482 1.16719 13.7373 1.1375C13.6404 0.86875 13.0795 0 9.9998 0ZM9.5998 1.6H10.3998V2.8H11.5998V3.6H10.3998V4.8H9.5998V3.6H8.3998V2.8H9.5998V1.6ZM7.4623 5.9C6.7123 5.87813 6.1373 5.92656 5.8623 6.1875C5.68262 6.35938 5.5998 6.66563 5.5998 7.125C5.5998 9.55156 7.57324 11.525 9.9998 11.525C12.4264 11.525 14.3998 9.55156 14.3998 7.125C14.3998 6.66563 14.317 6.35938 14.1373 6.1875C13.7717 5.84063 12.8639 5.87813 11.7248 5.9375C11.2107 5.96406 10.6311 6 9.9998 6C9.36856 6 8.78887 5.96406 8.2748 5.9375C7.99043 5.92188 7.7123 5.90781 7.4623 5.9ZM9.9998 11.925C9.10293 11.925 8.21074 12.0063 7.3623 12.1625L9.9998 18.5625L12.6748 12.175C11.8123 12.0125 10.9123 11.925 9.9998 11.925ZM6.5748 12.3375C3.32012 13.1281 0.799805 14.9391 0.799805 16.8375V20H9.9998C9.83887 20 9.68574 19.9 9.6248 19.75L6.5748 12.3375ZM9.9998 20H19.1998V16.8375C19.1998 14.9484 16.7076 13.1344 13.4748 12.3375L10.3748 19.75C10.3123 19.8984 10.1607 20 9.9998 20Z" fill="black"/>
</g>
<defs>
<clipPath id="clip0_34_3674">
<rect width="20" height="20" fill="white"/>
</clipPath>
</defs>
</svg>
