<svg width="20" height="20" viewBox="0 0 20 20" fill="none" xmlns="http://www.w3.org/2000/svg">
<path d="M10.7625 2C7.21563 2 5.89844 4.74063 6.9125 7.0625C6.78594 7.14688 6.58281 7.41094 6.625 7.875C6.70938 8.71875 7.08906 8.92031 7.3 8.9625C7.38438 9.76406 7.89219 10.6984 8.1875 10.825C8.1875 11.3734 8.17969 11.8328 8.1375 12.425C7.49063 14.1234 3.35625 13.7297 2.825 16.775C2.80156 16.9078 2.93906 17.2 3.2125 17.2H16.8C17.2063 17.2 17.1984 16.9 17.175 16.7625C16.6344 13.7297 12.5094 14.1219 11.8625 12.425C11.8203 11.7906 11.8125 11.3734 11.8125 10.825C12.1078 10.6984 12.5781 9.72188 12.6625 8.9625C12.8734 8.9625 13.2109 8.70781 13.3375 7.8625C13.3797 7.39844 13.2063 7.10469 13.0375 7.0625C13.7125 6.21875 13.5906 2.7625 11.1 2.7625L10.7625 2ZM6.0625 4C3.39219 4.04531 2.22188 6.17031 3.025 7.9875C2.93906 8.02969 2.77031 8.25313 2.8125 8.6375C2.89844 9.32188 3.15313 9.4875 3.325 9.4875C3.40938 10.1281 3.7875 10.8469 4 10.975C4 11.4016 4.00469 11.3891 3.9625 11.9C3.61563 12.9938 0 12.9125 0 15.6C0 15.6 0 16 0.4 16H2.2125C2.82344 14.2719 4.48438 13.6062 5.7375 13.1125C6.42813 12.8406 7.13594 12.5656 7.35 12.225C7.37344 11.8531 7.38594 11.5375 7.3875 11.1875C7.00781 10.7531 6.725 10.0766 6.5875 9.5C6.2625 9.25938 5.91094 8.79688 5.825 7.9375C5.7875 7.52969 5.87344 7.19063 6.0125 6.925C5.69531 5.93906 5.71563 4.90938 6.0625 4ZM15.2 4C14.8172 4 14.3656 4.03125 13.9375 4.1C14.2578 5.03906 14.2703 6.16094 13.9875 6.9625C14.1125 7.2375 14.1703 7.57188 14.1375 7.9375L14.125 7.9625V7.9875C14.0063 8.77344 13.7172 9.25156 13.375 9.5125C13.2453 10.0531 12.9812 10.7359 12.6125 11.175C12.6141 11.5188 12.6266 11.8281 12.65 12.225C12.8641 12.5656 13.5734 12.8406 14.2625 13.1125C15.5141 13.6047 17.175 14.2719 17.7875 16H19.6C20 16 20 15.6125 20 15.6125C20.0016 12.5188 16.5766 13.2516 16.0625 11.8375C16.0188 11.3656 16.0125 11.4094 16.0125 10.9375C16.2266 10.8094 16.6203 10.0891 16.6625 9.4875C16.8344 9.4875 17.0891 9.31094 17.175 8.625C17.2172 8.28281 17.0906 8.02969 16.9625 7.9875C17.4781 7.30156 17.3938 4.6 15.4625 4.6L15.2 4Z" fill="black"/>
</svg>
