<svg width="20" height="20" viewBox="0 0 20 20" fill="none" xmlns="http://www.w3.org/2000/svg">
<g clip-path="url(#clip0_35_4552)">
<path d="M17.9643 2.03437C16.9096 0.981244 15.508 0.399994 14.0158 0.399994C12.5252 0.399994 11.1236 0.981244 10.0674 2.03593C9.7502 2.35468 2.36895 9.73593 2.03457 10.0687C-0.14043 12.2453 -0.14043 15.7875 2.03457 17.9641C3.09082 19.0187 4.49238 19.6 5.98457 19.6C7.4752 19.6 8.87676 19.0203 9.93301 17.9641C10.2033 17.6922 17.6283 10.2672 17.9658 9.93124C20.1424 7.75468 20.1408 4.21249 17.9643 2.03437ZM17.4002 9.36406C17.2533 9.51249 15.7393 11.025 14.0643 12.6984L7.3002 5.93437C8.97832 4.25624 10.4939 2.74062 10.6346 2.60156C11.5393 1.69687 12.7393 1.19999 14.0158 1.19999C15.2939 1.19999 16.4955 1.69687 17.3986 2.60156C19.2627 4.46562 19.2643 7.50156 17.4002 9.36406Z" fill="black"/>
</g>
<defs>
<clipPath id="clip0_35_4552">
<rect width="20" height="20" fill="white"/>
</clipPath>
</defs>
</svg>
