<svg width="20" height="20" viewBox="0 0 20 20" fill="none" xmlns="http://www.w3.org/2000/svg">
<g clip-path="url(#clip0_35_4625)">
<path d="M9.9998 0.799988C4.92362 0.799988 0.799805 4.9238 0.799805 9.99999C0.799805 15.0762 4.92362 19.2 9.9998 19.2C15.076 19.2 19.1998 15.0762 19.1998 9.99999C19.1998 4.9238 15.076 0.799988 9.9998 0.799988ZM9.9998 1.59999C14.6436 1.59999 18.3998 5.35617 18.3998 9.99999C18.3998 14.6438 14.6436 18.4 9.9998 18.4C5.35599 18.4 1.5998 14.6438 1.5998 9.99999C1.5998 5.35617 5.35599 1.59999 9.9998 1.59999ZM13.9951 5.9953C13.9301 5.99658 13.8664 6.01369 13.8095 6.04513C13.7526 6.07658 13.7042 6.12142 13.6686 6.17577L9.58809 12.1906L6.67168 9.48436C6.63337 9.4475 6.5881 9.41864 6.53851 9.39948C6.48891 9.38031 6.436 9.37123 6.38286 9.37275C6.32971 9.37427 6.27741 9.38637 6.22899 9.40834C6.18058 9.43031 6.13703 9.46171 6.10089 9.5007C6.06475 9.5397 6.03675 9.5855 6.01852 9.63544C6.00029 9.68538 5.99219 9.73846 5.99471 9.79156C5.99723 9.84467 6.01031 9.89674 6.03318 9.94474C6.05605 9.99273 6.08826 10.0357 6.12793 10.0711L9.72637 13.4101L14.3311 6.62421C14.3733 6.56369 14.398 6.49266 14.4023 6.41899C14.4067 6.34532 14.3906 6.27188 14.3559 6.20678C14.3211 6.14169 14.269 6.08748 14.2053 6.05015C14.1417 6.01283 14.0689 5.99384 13.9951 5.9953Z" fill="black"/>
</g>
<defs>
<clipPath id="clip0_35_4625">
<rect width="20" height="20" fill="white"/>
</clipPath>
</defs>
</svg>
