<svg width="20" height="20" viewBox="0 0 20 20" fill="none" xmlns="http://www.w3.org/2000/svg">
<g clip-path="url(#clip0_34_3666)">
<path d="M4.7998 0C4.3623 0 3.9998 0.3625 3.9998 0.8V1.6H1.5998C1.13574 1.6 0.799805 1.93594 0.799805 2.4V5.2H19.1998V2.4C19.1998 1.93594 18.8639 1.6 18.3998 1.6H15.9998V0.8C15.9998 0.3625 15.6373 0 15.1998 0H14.3998C13.9623 0 13.5998 0.3625 13.5998 0.8V1.6H6.3998V0.8C6.3998 0.3625 6.0373 0 5.5998 0H4.7998ZM4.7998 0.8H5.5998V3.2H4.7998V0.8ZM14.3998 0.8H15.1998V3.2H14.3998V0.8ZM0.799805 6V18.4C0.799805 18.8422 1.15762 19.2 1.5998 19.2H18.3998C18.842 19.2 19.1998 18.8422 19.1998 18.4V6H0.799805ZM13.0811 8.32031L13.7529 8.75313L9.76855 14.9359L6.63574 12.1016L7.17168 11.5078L9.60606 13.7109L13.0811 8.32031Z" fill="black"/>
</g>
<defs>
<clipPath id="clip0_34_3666">
<rect width="20" height="20" fill="white"/>
</clipPath>
</defs>
</svg>
